<svg xmlns="http://www.w3.org/2000/svg" width="900" height="600">
<rect fill="#00f" width="900" height="600"/>
<path fill="#ff0" transform="matrix(1.5351724,0,0,1.5246576,-126.78622,-122.4658)" d="M 168.57144,308.57143 A 207.14285,208.57143 0 0 1 582.85715,308.57144 L 375.71429,308.57144 z"/>
<rect fill="#00f" width="900" height="280" y="320"/>
<path fill="#2dba02" d="M 376.57567,546.90367 C 373.49787,543.81494 368.23281,541.52185 364.87557,541.80788 C 346.34071,543.38705 338.53219,536.96734 343.39039,524.14397 C 345.21464,519.32882 344.52447,514.41562 340.87465,506.23454 C 337.76607,499.26664 335.08427,484.19242 333.85329,466.76785 C 332.02659,440.91066 331.19107,437.80876 323.76794,429.32428 C 319.25678,424.16815 316.54346,418.66213 317.6379,416.88498 C 319.92189,413.17627 352.70634,397.80703 358.33339,397.80703 C 363.86488,397.80703 391.87818,370.35877 397.13542,359.78764 C 399.60012,354.83171 405.7823,348.03655 410.87359,344.68729 C 422.33829,337.14536 425.03208,332.91459 427.42694,318.68935 C 429.03995,309.10815 428.28608,306.24307 422.2614,299.05772 C 418.38157,294.43049 415.20719,289.53406 415.20719,288.17679 C 415.20719,283.79058 389.29822,260.07731 381.15136,257.00704 C 375.79411,254.98809 370.47371,254.90449 364.63359,256.7475 C 359.89531,258.2428 345.48847,262.13346 332.6184,265.39345 C 319.74829,268.65341 306.98035,272.51044 304.24514,273.9646 C 297.99989,277.28489 225.80778,279.18733 218.37056,276.2276 C 209.4453,272.67571 192.75982,256.14865 189.61941,247.74946 C 185.47643,236.66881 185.88948,234.98324 193.45527,232.09656 C 198.15677,230.30269 201.11458,226.11125 203.22235,218.25581 C 205.75034,208.83429 207.63741,206.70878 214.73976,205.28328 C 219.74285,204.27911 223.7807,201.47976 224.56447,198.47198 C 226.29002,191.85012 232.27638,191.98925 240.97182,198.85335 C 249.28372,205.41465 255.10306,203.28064 248.59091,196.0593 C 244.61247,191.64756 237.70205,155.08687 240.34525,152.43427 C 240.86988,151.90778 243.79316,152.81652 246.8414,154.45366 C 249.88967,156.09082 254.31012,156.68845 256.66464,155.78175 C 259.34286,154.75037 265.7328,158.36197 273.73235,165.42843 C 288.96849,178.88737 301.0535,182.74532 321.54311,180.69126 C 341.6043,178.68013 370.19426,166.97931 372.00249,160.0401 C 373.47981,154.37085 362.10753,142.74714 351.90397,139.49716 C 345.68498,137.51634 344.75977,132.55716 349.68673,127.61272 C 359.11528,118.15073 391.81949,128.2429 411.327,146.63426 C 416.30014,151.32283 421.89723,153.31986 431.18277,153.71869 C 449.61633,154.51048 481.22094,159.59022 490.91356,163.31906 C 495.45594,165.0666 501.86262,169.64275 505.15059,173.48829 L 511.12869,180.48021 L 575.35105,177.31148 C 610.67334,175.56867 644.99868,173.34905 651.62956,172.37898 C 663.51243,170.64058 677.20157,173.38996 695.32082,181.1541 C 707.06436,186.18623 706.8953,193.59494 694.78455,204.65456 C 689.56865,209.41772 684.51265,216.91757 683.54893,221.32088 C 681.14518,232.3039 674.77239,235.12058 660.53318,231.49345 C 649.03129,228.56361 636.13085,230.64703 620.30266,237.99071 C 612.57748,241.5749 593.44734,260.74782 577.51658,280.87243 C 570.09006,290.25403 561.79339,298.63712 559.0795,299.50153 C 551.01809,302.0692 543.4702,357.69358 547.57794,384.26258 C 551.19802,407.67732 555.53498,415.54102 568.13887,421.54318 C 580.32647,427.34708 596.44938,443.38096 598.55207,451.78839 C 602.86213,469.02192 594.70285,476.5506 572.87203,475.48366 C 559.37384,474.82398 542.27894,479.57862 517.06669,491.00494 C 507.22486,495.4653 494.9309,499.95387 489.7468,500.97956 C 480.92704,502.72458 442.34428,527.20177 420.77411,544.73642 C 408.4432,554.76029 385.52438,555.88412 376.57567,546.90367 z"/>
<path fill="#fff" d="M 496.01367,371.69816 C 492.86113,367.67614 490.28164,361.20134 490.28164,357.30977 C 490.28164,353.41817 488.00249,345.15632 485.21668,338.95013 C 482.43059,332.74396 478.07474,322.9403 475.537,317.16426 C 472.99899,311.38822 470.92228,299.89781 470.92228,291.63 C 470.92228,277.21078 471.43005,276.17184 483.36758,266.15791 C 499.3385,252.76075 499.51329,246.92829 484.05899,243.07635 C 477.59435,241.46504 465.77131,237.05921 457.78558,233.28565 C 442.23891,225.93921 440.15557,221.05927 445.9902,205.65838 C 449.82335,195.54127 455.37257,194.3914 465.19496,201.67903 C 473.42241,207.78331 473.9664,207.83132 483.45498,203.29059 C 501.20087,194.7983 543.43939,198.97771 548.35169,209.71193 C 549.39958,212.00163 553.04993,219.68581 556.46381,226.78787 C 561.45935,237.1805 562.06502,240.83683 559.56656,245.52178 C 557.85907,248.72336 555.39628,251.34283 554.09367,251.34283 C 552.79079,251.34283 550.97903,254.32599 550.0672,257.97208 C 549.1551,261.61817 544.04229,268.44914 538.70492,273.15196 C 530.14698,280.69229 529.00146,283.27024 529.00948,294.97049 C 529.01722,306.46148 525.03887,327.01671 514.75767,368.60321 C 511.6292,381.25817 504.43803,382.44559 496.01367,371.69816 z"/>
</svg>